<svg version="1.1" xmlns="http://www.w3.org/2000/svg" width="200px" height="200px" transform="rotate(0) scale(1, 1)">
<path d="M0 0 C2.63430969 1.58068742 5.23592674 3.20364847 7.82885742 4.85131836 C8.75182617 5.43357178 9.67479492 6.0158252 10.62573242 6.61572266 C12.45276293 7.77124889 14.27770452 8.93008587 16.1003418 10.0925293 C18.20000637 11.42364053 20.31240195 12.72675448 22.43823242 14.01538086 C29.80179346 18.61302718 34.20304292 22.61916517 36.51635742 31.10131836 C36.63991933 38.14434738 35.30509236 44.09077114 30.78588867 49.63256836 C26.27720296 53.78215521 20.83850556 56.63453645 15.50756836 59.59204102 C12.71853186 61.14189801 9.96507738 62.75253792 7.20385742 64.35131836 C1.70005931 67.48031797 -3.82579083 70.56917229 -9.3527832 73.65698242 C-21.10264987 80.22266976 -32.838415 86.80626809 -44.42114258 93.66381836 C-45.01685059 94.01557129 -45.61255859 94.36732422 -46.22631836 94.72973633 C-54.96042893 99.62626839 -54.96042893 99.62626839 -60.10083008 107.87475586 C-60.55515632 112.9086906 -60.5133252 116.93366636 -58.42114258 121.66381836 C-54.66420747 125.78728373 -51.20823639 127.57192559 -45.72973633 128.59741211 C-42.48363154 128.69078568 -40.1182278 127.73216923 -37.24536133 126.29272461 C-34.90640607 125.48636102 -33.70219597 125.76666765 -31.42114258 126.66381836 C-29.85864258 128.85131836 -29.85864258 128.85131836 -28.42114258 131.66381836 C-27.61676758 133.17975586 -27.61676758 133.17975586 -26.79614258 134.72631836 C-24.54796202 139.52924955 -23.97545391 143.31555431 -24.42114258 148.66381836 C-25.54271318 151.46039832 -26.90697587 154.06134432 -28.42114258 156.66381836 C-29.08114258 156.66381836 -29.74114258 156.66381836 -30.42114258 156.66381836 C-30.75114258 157.65381836 -31.08114258 158.64381836 -31.42114258 159.66381836 C-33.53491211 161.04248047 -33.53491211 161.04248047 -36.30395508 162.44116211 C-37.3068457 162.95485352 -38.30973633 163.46854492 -39.34301758 163.99780273 C-40.40004883 164.52696289 -41.45708008 165.05612305 -42.54614258 165.60131836 C-44.61184964 166.6509139 -46.67696798 167.701669 -48.74145508 168.75366211 C-49.72525146 169.25269043 -50.70904785 169.75171875 -51.72265625 170.26586914 C-53.96831216 171.42922983 -56.16833062 172.63234457 -58.35473633 173.90209961 C-65.80344681 178.18154983 -72.87336158 181.3586816 -81.51879883 179.12084961 C-88.41164997 176.78887567 -92.90988469 173.11355163 -96.42114258 166.66381836 C-96.98480796 163.40910931 -96.95502474 160.21074114 -96.91943359 156.9140625 C-96.92495239 155.94907333 -96.93047119 154.98408417 -96.93615723 153.98985291 C-96.94546059 151.90119013 -96.94559619 149.81247062 -96.93756294 147.72380257 C-96.92491986 144.41522577 -96.93623547 141.10748161 -96.95359802 137.79893494 C-96.98029392 131.9671233 -96.98589395 126.13551604 -96.98449707 120.3036499 C-96.98226836 110.9731588 -96.99642419 101.64292081 -97.04008293 92.31252861 C-97.04990814 89.05807523 -97.04121038 85.80402087 -97.03138733 82.54957581 C-97.03753314 80.54737081 -97.04444541 78.54516798 -97.05224609 76.54296875 C-97.04452682 75.6424881 -97.03680756 74.74200745 -97.02885437 73.8142395 C-97.07273837 68.34381503 -97.77182596 64.48828461 -100.42114258 59.66381836 C-105.83728946 55.37603541 -110.55134336 53.94685639 -117.42114258 54.66381836 C-122.11898338 56.38033712 -124.69700301 58.48031832 -127.42114258 62.66381836 C-129.18760498 66.94051679 -129.80044436 71.09763845 -130.42114258 75.66381836 C-147.43576191 76.46137864 -147.43576191 76.46137864 -153.42114258 71.66381836 C-156.98565446 67.82511325 -158.53286316 65.35473963 -158.61401367 60.17333984 C-158.6300766 59.24154404 -158.64613953 58.30974823 -158.66268921 57.34971619 C-158.70726014 53.06632222 -158.74824536 48.78308385 -158.77124023 44.49951172 C-158.78775073 42.2464766 -158.81497521 39.99349278 -158.85327148 37.74072266 C-158.90833045 34.48434393 -158.92996381 31.2291951 -158.94458008 27.97241211 C-158.96724945 26.97519638 -158.98991882 25.97798065 -159.01327515 24.95054626 C-158.99281573 18.10311234 -157.57188644 13.18274686 -153.42114258 7.66381836 C-150.54614258 5.28881836 -150.54614258 5.28881836 -147.42114258 3.66381836 C-146.32801758 3.06569336 -145.23489258 2.46756836 -144.10864258 1.85131836 C-136.90953154 -0.46703943 -131.92176619 1.2120671 -125.23364258 4.47631836 C-122.61051713 5.8379711 -120.01501556 7.24737697 -117.42114258 8.66381836 C-116.64109863 9.08598633 -115.86105469 9.5081543 -115.05737305 9.94311523 C-110.52208907 12.3978564 -105.99630799 14.86942745 -101.47583008 17.35131836 C-94.0077845 21.44661918 -86.50543511 25.47810632 -78.99267578 29.49072266 C-73.83193892 32.25431366 -68.70511405 35.05355003 -63.64379883 37.99584961 C-62.74741699 38.51074951 -61.85103516 39.02564941 -60.92749023 39.55615234 C-59.27576154 40.5094833 -57.63260704 41.47791274 -56.00073242 42.46484375 C-50.75211673 45.47590375 -46.46707748 46.51526389 -40.42114258 45.66381836 C-35.7210873 43.97889288 -33.02024755 41.93377652 -30.42114258 37.66381836 C-28.12786283 31.85718886 -28.15664609 27.35913894 -30.41723633 21.55053711 C-31.67412246 19.18837368 -33.04639866 17.89213418 -35.42114258 16.66381836 C-34.45952515 9.59086914 -29.86092366 3.98741939 -24.79614258 -0.83618164 C-16.23901363 -6.24068413 -8.54731672 -4.71709836 0 0 Z " fill="#000000" transform="translate(161.421142578125,12.336181640625)"/>
<path d="M0 0 C3.43681319 3.34134615 3.43681319 3.34134615 4.25 6.1875 C3.95570242 10.30766614 3.41339629 13.65817022 1.25 17.1875 C-0.43554688 18.49267578 -0.43554688 18.49267578 -2.46875 19.6328125 C-3.22752441 20.06553467 -3.98629883 20.49825684 -4.76806641 20.9440918 C-5.58710449 21.3956665 -6.40614258 21.84724121 -7.25 22.3125 C-8.09353027 22.78534424 -8.93706055 23.25818848 -9.80615234 23.74536133 C-11.57023528 24.73345134 -13.33639024 25.71785025 -15.10449219 26.69873047 C-17.65986365 28.13677543 -20.17967441 29.62265406 -22.6953125 31.12890625 C-24.25506705 32.04451155 -25.81495737 32.95988563 -27.375 33.875 C-28.08333984 34.30893066 -28.79167969 34.74286133 -29.52148438 35.18994141 C-34.55003676 38.08312964 -38.94971894 39.14133683 -44.75 38.1875 C-48.17828835 36.14511545 -50.63688048 34.08341831 -51.75 30.1875 C-51.75 24.81484743 -50.2994434 21.6719905 -46.71875 17.86328125 C-43.74494269 15.33200479 -40.50078165 13.63140796 -37.03125 11.86328125 C-33.08349625 9.84710701 -29.23261663 7.68230884 -25.375 5.5 C-24.69711426 5.11924316 -24.01922852 4.73848633 -23.32080078 4.34619141 C-20.48880674 2.75288754 -17.67719277 1.14357662 -14.89453125 -0.53515625 C-9.71737541 -3.61881738 -5.07873263 -3.34734651 0 0 Z " fill="#000000" transform="translate(156.75,97.8125)"/>
<path d="M0 0 C1.29506949 0.679348 2.58516376 1.36824181 3.87084961 2.06518555 C4.90573769 2.61483223 4.90573769 2.61483223 5.96153259 3.17558289 C7.4133835 3.94907845 8.86302557 4.7267328 10.31054688 5.50830078 C12.51464792 6.69729449 14.7261767 7.87143071 16.93920898 9.04370117 C18.35438723 9.79999372 19.76911627 10.55712754 21.18334961 11.31518555 C21.83868179 11.6632576 22.49401398 12.01132965 23.16920471 12.36994934 C33.65225267 18.0565593 33.65225267 18.0565593 35.46069336 23.3894043 C35.88626284 28.34551551 35.11660579 31.58591157 31.96069336 35.4519043 C28.04702206 38.11301658 24.01405787 38.15694278 19.46069336 37.3894043 C15.11446976 35.7031745 11.0981541 33.51874217 7.02319336 31.2644043 C5.95520508 30.69463867 4.8872168 30.12487305 3.78686523 29.5378418 C-16.81771314 18.4614649 -16.81771314 18.4614649 -19.53930664 13.3894043 C-20.02216052 9.52657326 -19.902435 7.1882867 -18.28930664 3.6394043 C-12.99250421 -3.17077026 -7.63088399 -3.47250753 0 0 Z " fill="#000000" transform="translate(92.539306640625,15.610595703125)"/>
<path d="M0 0 C4.21541961 3.77169123 4.60651749 7.61178434 5 13 C5.08049835 15.98848525 5.02902175 18.96501269 4.94921875 21.953125 C4.9303511 22.77576843 4.91148346 23.59841187 4.89204407 24.44598389 C4.85045929 26.17044643 4.80575635 27.89483639 4.75805664 29.61914062 C4.68732913 32.25637126 4.63323258 34.89361348 4.58007812 37.53125 C4.53746489 39.21356746 4.49387926 40.89586064 4.44921875 42.578125 C4.43453049 43.36358704 4.41984222 44.14904907 4.40470886 44.95831299 C4.18719132 51.87695474 4.18719132 51.87695474 2 55 C-1.95083115 58.16066492 -5.01960936 58.52425165 -10 58 C-13.98066095 56.42275698 -15.60667274 55.58999089 -18 52 C-18.26742554 49.97123718 -18.26742554 49.97123718 -18.29052734 47.6237793 C-18.30328705 46.7424382 -18.31604675 45.86109711 -18.32919312 44.95304871 C-18.33141876 44.00303482 -18.33364441 43.05302094 -18.3359375 42.07421875 C-18.3425943 41.09387161 -18.3492511 40.11352448 -18.35610962 39.10346985 C-18.36623843 37.02806475 -18.37092657 34.95262706 -18.37060547 32.87719727 C-18.37496914 29.70989869 -18.41126048 26.54400422 -18.44921875 23.37695312 C-18.45508883 21.35937976 -18.45905694 19.34179978 -18.4609375 17.32421875 C-18.48249405 15.90830696 -18.48249405 15.90830696 -18.50448608 14.46379089 C-18.46549412 8.81898648 -17.87826542 5.4151022 -14 1 C-8.7533447 -2.16779188 -5.60723974 -2.53912743 0 0 Z " fill="#000000" transform="translate(55,73)"/>
<path d="M0 0 C0.66 0 1.32 0 2 0 C2.01417969 0.65226562 2.02835938 1.30453125 2.04296875 1.9765625 C2.39315631 8.39351297 3.25873024 11.5895165 8 16 C11.37369086 18.36158361 14.92752171 18.79637609 19 19 C21.13095307 18.34279018 23.09001367 17.54606279 25.10546875 16.59375 C27.47581091 15.85087988 28.70556403 16.09861444 31 17 C32.5625 19.1875 32.5625 19.1875 34 22 C34.53625 23.010625 35.0725 24.02125 35.625 25.0625 C37.87318056 29.86543119 38.44568867 33.65173595 38 39 C36.8784294 41.79657996 35.51416671 44.39752596 34 47 C33.34 47 32.68 47 32 47 C31.67 47.99 31.34 48.98 31 50 C28.88623047 51.37866211 28.88623047 51.37866211 26.1171875 52.77734375 C25.11429688 53.29103516 24.11140625 53.80472656 23.078125 54.33398438 C21.49257812 55.12772461 21.49257812 55.12772461 19.875 55.9375 C17.80929294 56.98709554 15.74417459 58.03785065 13.6796875 59.08984375 C12.69589111 59.58887207 11.71209473 60.08790039 10.69848633 60.60205078 C8.45283042 61.76541147 6.25281195 62.96852621 4.06640625 64.23828125 C-3.40016669 68.52799386 -10.5079068 71.73122485 -19.16796875 69.421875 C-22.88671665 68.14842399 -25.32331886 66.94023128 -28 64 C-22.47363375 64.7535954 -22.47363375 64.7535954 -20.0703125 66.00390625 C-16.08766492 67.92008575 -12.29535454 67.76423841 -8 67 C-4.1365811 65.50478763 -0.52874934 63.52743512 3.09375 61.53125 C6 60 6 60 8 60 C8 59.34 8 58.68 8 58 C9.3303125 57.4740625 9.3303125 57.4740625 10.6875 56.9375 C15.71666624 54.80579579 20.43864272 52.07610537 25.20703125 49.42578125 C28 48 28 48 30 48 C30 47.34 30 46.68 30 46 C30.66 46 31.32 46 32 46 C33.95031692 41.92276266 34.21581971 38.68307578 34.125 34.1875 C34.10695312 33.02605469 34.08890625 31.86460937 34.0703125 30.66796875 C34.04710937 29.78753906 34.02390625 28.90710938 34 28 C33.34 28 32.68 28 32 28 C30.5216774 25.04335481 30.93967217 22.25770263 31 19 C30.3709375 19.2165625 29.741875 19.433125 29.09375 19.65625 C21.73430115 22.05028758 15.28504785 23.64252393 8 20 C8 19.34 8 18.68 8 18 C7.21625 17.7525 6.4325 17.505 5.625 17.25 C2.51512121 15.76910534 2.1911808 15.1481207 1 12 C0.71519194 9.9257375 0.51125776 7.83928561 0.375 5.75 C0.30023438 4.67234375 0.22546875 3.5946875 0.1484375 2.484375 C0.09945312 1.66453125 0.05046875 0.8446875 0 0 Z " fill="#000000" transform="translate(99,122)"/>
<path d="M0 0 C1.42892578 -0.02126953 1.42892578 -0.02126953 2.88671875 -0.04296875 C5.3125 0.1875 5.3125 0.1875 7.3125 2.1875 C7.9725 1.5275 8.6325 0.8675 9.3125 0.1875 C9.3125 1.1775 9.3125 2.1675 9.3125 3.1875 C10.3025 3.8475 11.2925 4.5075 12.3125 5.1875 C15.08184645 11.09961426 15.76332983 16.06856646 15.77661133 22.53759766 C15.79671768 23.88551643 15.79671768 23.88551643 15.81723022 25.26066589 C15.85735868 28.20766095 15.87651296 31.15435582 15.89453125 34.1015625 C15.91647962 36.16084844 15.93941887 38.22012403 15.96330261 40.27938843 C16.0100576 44.58466815 16.04675191 48.8898786 16.07592773 53.1953125 C16.1138209 58.70785105 16.173863 64.21987558 16.24104786 69.73212624 C16.29088997 73.98029632 16.33050539 78.22851324 16.36688805 82.47681808 C16.3852362 84.50938001 16.40640179 86.54191857 16.43045998 88.57442093 C16.46225043 91.41504036 16.48062725 94.25543893 16.49536133 97.09619141 C16.51310356 98.34940941 16.51310356 98.34940941 16.53120422 99.62794495 C16.53903952 104.22064627 16.07059371 107.86275284 14.3125 112.1875 C13.9825 112.1875 13.6525 112.1875 13.3125 112.1875 C13.30370064 110.38798134 13.30370064 110.38798134 13.29472351 108.55210876 C13.23747092 97.23744234 13.16469577 85.92296764 13.07678509 74.60849667 C13.03208819 68.79182767 12.99283035 62.97522861 12.96606445 57.15844727 C12.94002501 51.5432513 12.89961752 45.92832455 12.84931374 40.31329536 C12.83264947 38.17276932 12.82113246 36.03219671 12.81488609 33.89161491 C12.80524045 30.88961547 12.77717481 27.8883041 12.74487305 24.88647461 C12.74630814 24.0046199 12.74774323 23.1227652 12.7492218 22.21418762 C12.66707237 16.80360849 11.92001456 12.96487229 9.3125 8.1875 C3.92143532 3.9195738 -0.83750277 2.42351165 -7.6875 3.1875 C-11.00555142 4.51179273 -11.00555142 4.51179273 -13.6875 6.1875 C-14.6775 6.6825 -14.6775 6.6825 -15.6875 7.1875 C-14.31766497 4.02634224 -13.6984362 3.1947908 -10.6875 1.1875 C-7.10851446 0.24629275 -3.69223874 0.0251858 0 0 Z " fill="#000000" transform="translate(51.6875,63.8125)"/>
<path d="M0 0 C1.32711132 0.70537038 2.64936056 1.41994449 3.96728516 2.14233398 C4.66906891 2.5182518 5.37085266 2.89416962 6.09390259 3.28147888 C8.3191278 4.47580661 10.53772794 5.68188178 12.75634766 6.88842773 C14.27024756 7.70366688 15.78456645 8.51812849 17.29931641 9.33178711 C20.99823687 11.32086728 24.69126492 13.32050311 28.38134766 15.32592773 C27.39134766 16.31592773 26.40134766 17.30592773 25.38134766 18.32592773 C25.38134766 17.66592773 25.38134766 17.00592773 25.38134766 16.32592773 C24.52025391 16.06295898 23.65916016 15.79999023 22.77197266 15.52905273 C19.33757317 14.31039485 16.32659563 12.82308303 13.13134766 11.07592773 C11.99955078 10.46104492 10.86775391 9.84616211 9.70166016 9.21264648 C6.73349038 7.52602766 3.87575429 5.73555341 1.00634766 3.88842773 C-3.01697581 1.45875837 -5.84459403 0.27563491 -10.61865234 1.32592773 C-13.70835147 4.01951159 -14.55334993 5.47699639 -14.86865234 9.57592773 C-14.78615234 10.48342773 -14.70365234 11.39092773 -14.61865234 12.32592773 C-14.61865234 12.65592773 -14.61865234 12.98592773 -14.61865234 13.32592773 C-13.84225914 16.40046333 -13.84225914 16.40046333 -11.61865234 18.32592773 C-15.61865234 18.32592773 -15.61865234 18.32592773 -17.86865234 16.26342773 C-20.05603946 12.59174222 -20.14559122 10.54143877 -19.61865234 6.32592773 C-17.94240974 2.638194 -16.04611641 0.46809277 -12.61865234 -1.67407227 C-7.78719727 -3.28455729 -4.55596829 -2.1076963 0 0 Z " fill="#000000" transform="translate(92.61865234375,15.674072265625)"/>
<path d="M0 0 C0.33 0.66 0.66 1.32 1 2 C0.071875 2.37125 -0.85625 2.7425 -1.8125 3.125 C-5.73939345 5.43493733 -6.4050191 6.75911611 -8 11 C-8.38829756 14.33799656 -8.35010767 17.635541 -8.29296875 20.9921875 C-8.28872391 21.93812775 -8.28447906 22.88406799 -8.28010559 23.8586731 C-8.26338306 26.86441133 -8.22574263 29.8694662 -8.1875 32.875 C-8.17244486 34.91926111 -8.15875791 36.96353279 -8.14648438 39.0078125 C-8.11350055 44.00546954 -8.06176253 49.00261911 -8 54 C-7.01 54 -6.02 54 -5 54 C-4.5875 54.474375 -4.175 54.94875 -3.75 55.4375 C-1.12475166 57.78147173 1.58502942 57.67783296 5 58 C5 57.34 5 56.68 5 56 C5.66 56 6.32 56 7 56 C7.33 55.01 7.66 54.02 8 53 C8.66 53 9.32 53 10 53 C9.69611836 55.93752254 9.19330344 56.84080893 6.875 58.75 C3.27531296 60.31508132 0.89868709 60.41038812 -3 60 C-6.98066095 58.42275698 -8.60667274 57.58999089 -11 54 C-11.26742554 51.97123718 -11.26742554 51.97123718 -11.29052734 49.6237793 C-11.30328705 48.7424382 -11.31604675 47.86109711 -11.32919312 46.95304871 C-11.33141876 46.00303482 -11.33364441 45.05302094 -11.3359375 44.07421875 C-11.3425943 43.09387161 -11.3492511 42.11352448 -11.35610962 41.10346985 C-11.36623843 39.02806475 -11.37092657 36.95262706 -11.37060547 34.87719727 C-11.37496914 31.70989869 -11.41126048 28.54400422 -11.44921875 25.37695312 C-11.45508883 23.35937976 -11.45905694 21.34179978 -11.4609375 19.32421875 C-11.48249405 17.90830696 -11.48249405 17.90830696 -11.50448608 16.46379089 C-11.46442668 10.66445434 -10.81772829 7.44034869 -7 3 C-4.70170668 1.51451773 -2.61811157 0.90626939 0 0 Z " fill="#000000" transform="translate(48,71)"/>
<path d="M0 0 C3.62880625 1.90989803 5.51671682 3.15316745 7 7 C7.42556948 11.95611122 6.65591243 15.19650728 3.5 19.0625 C-0.41824728 21.72400532 -4.44305226 21.77806618 -9 21 C-13.42884617 19.27096973 -17.52996314 17.04635685 -21.6875 14.75 C-22.78900391 14.16347656 -23.89050781 13.57695313 -25.02539062 12.97265625 C-30.18343367 10.20219258 -35.21856954 7.38300859 -40 4 C-36.25 2.875 -36.25 2.875 -34 4 C-32.45386986 3.91348369 -30.91090613 3.75997364 -29.375 3.5625 C-28.55773437 3.46066406 -27.74046875 3.35882813 -26.8984375 3.25390625 C-26.27195312 3.17011719 -25.64546875 3.08632813 -25 3 C-25 3.66 -25 4.32 -25 5 C-25.66 5 -26.32 5 -27 5 C-27 5.99 -27 6.98 -27 8 C-26.34 8 -25.68 8 -25 8 C-24.54625 8.474375 -24.0925 8.94875 -23.625 9.4375 C-21.77022513 11.22093737 -20.49864408 11.5691993 -18 12 C-18 12.66 -18 13.32 -18 14 C-17.071875 14.28875 -16.14375 14.5775 -15.1875 14.875 C-12 16 -12 16 -9 18 C-5.60868988 18.52989221 -2.39027668 18.54700262 1 18 C3.42350874 16.07197898 3.42350874 16.07197898 4 13 C3.87770846 8.19734592 3.87770846 8.19734592 1.4375 4.25 C0.963125 3.8375 0.48875 3.425 0 3 C0 2.01 0 1.02 0 0 Z " fill="#000000" transform="translate(121,32)"/>
<path d="M0 0 C0.33 0.99 0.66 1.98 1 3 C0.28714844 3.38671875 -0.42570312 3.7734375 -1.16015625 4.171875 C-3.14133971 5.24912684 -5.11907013 6.33274744 -7.09375 7.421875 C-8.7846897 8.34007344 -10.48809539 9.23717311 -12.21875 10.078125 C-15.4858797 11.71168985 -16.87021847 12.73502937 -18.5 16.0625 C-19.2454846 19.04843364 -19.2454846 19.04843364 -18 22 C-17.01 22.33 -16.02 22.66 -15 23 C-15.33 24.65 -15.66 26.3 -16 28 C-7.76766986 27.96496881 -2.76301772 25.47758415 4 21 C9.6 18 9.6 18 12 18 C11 21 11 21 8.453125 22.5 C7.39609375 22.995 6.3390625 23.49 5.25 24 C2.18844324 25.4478298 -0.75072447 26.84140404 -3.609375 28.66015625 C-7.36814933 30.76678957 -10.80774655 30.69236854 -15 30 C-18.42828835 27.95761545 -20.88688048 25.89591831 -22 22 C-22 16.64920354 -20.55536769 13.51779916 -17.015625 9.703125 C-13.11145441 6.40425217 -8.57081757 4.23017232 -4 2 C-2.84371094 1.42185547 -2.84371094 1.42185547 -1.6640625 0.83203125 C-1.11492187 0.55746094 -0.56578125 0.28289062 0 0 Z " fill="#000000" transform="translate(127,106)"/>
<path d="M0 0 C3.43681319 3.34134615 3.43681319 3.34134615 4.25 6.1875 C3.95565383 10.30834638 3.41015771 13.6557852 1.25 17.1875 C-0.4140625 18.46777344 -0.4140625 18.46777344 -2.375 19.546875 C-3.08140625 19.94003906 -3.7878125 20.33320312 -4.515625 20.73828125 C-5.25296875 21.13402344 -5.9903125 21.52976562 -6.75 21.9375 C-7.48734375 22.34871094 -8.2246875 22.75992188 -8.984375 23.18359375 C-14.45328073 26.1875 -14.45328073 26.1875 -16.75 26.1875 C-16.75 25.5275 -16.75 24.8675 -16.75 24.1875 C-14.44921875 22.49609375 -14.44921875 22.49609375 -11.4375 20.625 C-10.45136719 20.00496094 -9.46523437 19.38492188 -8.44921875 18.74609375 C-5.75 17.1875 -5.75 17.1875 -2.75 16.1875 C-0.91884106 15.19234776 -0.91884106 15.19234776 0.25 13.1875 C0.88365562 8.27666895 0.97186782 6.29286011 -1.75 2.125 C-5.31186513 -0.17537123 -6.79045251 -0.13597148 -10.8125 0.65625 C-13.22022583 1.31643289 -15.48921281 2.12775601 -17.75 3.1875 C-17.75 3.8475 -17.75 4.5075 -17.75 5.1875 C-20.22346304 7.66096304 -21.45761168 8.17063144 -25 8.375 C-25.9075 8.313125 -26.815 8.25125 -27.75 8.1875 C-25.16201 5.26817564 -22.17012791 3.51316145 -18.8125 1.5625 C-17.77222656 0.95148438 -16.73195312 0.34046875 -15.66015625 -0.2890625 C-10.00691953 -3.24847501 -5.54234739 -3.65291078 0 0 Z " fill="#000000" transform="translate(156.75,97.8125)"/>
<path d="M0 0 C6.2077328 2.12836553 10.18945163 5.36730373 13.2109375 11.15234375 C15.78369318 17.1766677 15.21652187 23.00296186 13 29 C9.31345902 36.147646 3.07244412 40.44712383 -4 44 C-4.99 44 -5.98 44 -7 44 C-6.67 43.01 -6.34 42.02 -6 41 C-6 40.01 -6 39.02 -6 38 C-4.02 38.66 -2.04 39.32 0 40 C0 39.34 0 38.68 0 38 C0.9075 37.401875 1.815 36.80375 2.75 36.1875 C6.53902333 33.63719583 9.37180979 31.5618382 10.5 26.9609375 C10.82125582 24.62380138 10.95647643 22.35818599 11 20 C11.02449219 19.31421875 11.04898438 18.6284375 11.07421875 17.921875 C10.84254964 11.72777448 7.3993935 8.09201229 3 4 C2.01 3.34 1.02 2.68 0 2 C0 1.34 0 0.68 0 0 Z " fill="#000000" transform="translate(183,27)"/>
<path d="M0 0 C0.99 0.66 1.98 1.32 3 2 C2.03578125 2.06058594 1.0715625 2.12117188 0.078125 2.18359375 C-1.18515625 2.26738281 -2.4484375 2.35117187 -3.75 2.4375 C-5.00296875 2.51871094 -6.2559375 2.59992187 -7.546875 2.68359375 C-11.36413298 2.98103233 -11.36413298 2.98103233 -15 4 C-15.99 5.485 -15.99 5.485 -17 7 C-17.82975342 7.45149414 -18.65950684 7.90298828 -19.5144043 8.36816406 C-23.43032556 10.9390331 -23.51988418 13.94353547 -24.46337891 18.34960938 C-25.48408428 25.29300646 -25.58161065 32.24301995 -25.6875 39.25 C-25.72076069 40.78518372 -25.75525803 42.32034116 -25.79101562 43.85546875 C-25.87489962 47.57011912 -25.94217031 51.28484175 -26 55 C-26.33 55 -26.66 55 -27 55 C-27.12437321 49.46826209 -27.21470142 43.93735281 -27.2746582 38.40454102 C-27.29967344 36.5258159 -27.33369706 34.64718684 -27.37719727 32.76879883 C-27.83843843 12.32767553 -27.83843843 12.32767553 -22 6 C-19.125 3.625 -19.125 3.625 -16 2 C-14.906875 1.401875 -13.81375 0.80375 -12.6875 0.1875 C-8.17949917 -1.26422908 -4.57042812 -1.17803671 0 0 Z " fill="#000000" transform="translate(30,14)"/>
<path d="M0 0 C0.66 0.33 1.32 0.66 2 1 C1.01157104 1.57331055 1.01157104 1.57331055 0.00317383 2.15820312 C-6.35447428 5.84855889 -12.70456319 9.55155419 -19.04638672 13.26904297 C-20.81241217 14.30401738 -22.57934947 15.33744185 -24.34814453 16.36767578 C-26.15470957 17.422498 -27.95288419 18.49165832 -29.75 19.5625 C-30.69359375 20.12066406 -31.6371875 20.67882812 -32.609375 21.25390625 C-36.26649012 23.92503445 -38.50897132 27.26345698 -41 31 C-42.0536628 27.83901159 -42.21514551 26.99112741 -41 24 C-37.67857143 21 -37.67857143 21 -35 21 C-34.67 20.01 -34.34 19.02 -34 18 C-32.35 17.67 -30.7 17.34 -29 17 C-28.67 16.01 -28.34 15.02 -28 14 C-27.34 14 -26.68 14 -26 14 C-26 13.34 -26 12.68 -26 12 C-21 10 -21 10 -18.703125 9.1171875 C-15.70331375 7.87738112 -12.83394819 6.46470199 -9.9375 5 C-8.91527344 4.484375 -7.89304688 3.96875 -6.83984375 3.4375 C-5.12908393 2.57153079 -3.42936855 1.68243119 -1.75390625 0.75 C-0.88572266 0.37875 -0.88572266 0.37875 0 0 Z " fill="#000000" transform="translate(141,90)"/>
<path d="M0 0 C1.42892578 -0.02126953 1.42892578 -0.02126953 2.88671875 -0.04296875 C5.3125 0.1875 5.3125 0.1875 7.3125 2.1875 C7.9725 1.5275 8.6325 0.8675 9.3125 0.1875 C9.3125 1.1775 9.3125 2.1675 9.3125 3.1875 C10.3025 3.8475 11.2925 4.5075 12.3125 5.1875 C15.35041556 11.47577276 15.69573843 16.78144651 15.5 23.6875 C15.47969727 25.06421875 15.47969727 25.06421875 15.45898438 26.46875 C15.42398097 28.70896803 15.37488869 30.94790594 15.3125 33.1875 C14.9825 33.1875 14.6525 33.1875 14.3125 33.1875 C14.20292969 31.96933594 14.09335938 30.75117187 13.98046875 29.49609375 C13.82090885 27.87233712 13.66071907 26.2486423 13.5 24.625 C13.42974609 23.82513672 13.35949219 23.02527344 13.28710938 22.20117188 C12.75396309 16.97633828 11.77236167 12.85111183 9.3125 8.1875 C3.92143532 3.9195738 -0.83750277 2.42351165 -7.6875 3.1875 C-11.00555142 4.51179273 -11.00555142 4.51179273 -13.6875 6.1875 C-14.6775 6.6825 -14.6775 6.6825 -15.6875 7.1875 C-14.31766497 4.02634224 -13.6984362 3.1947908 -10.6875 1.1875 C-7.10851446 0.24629275 -3.69223874 0.0251858 0 0 Z " fill="#000000" transform="translate(51.6875,63.8125)"/>
<path d="M0 0 C0.66 0 1.32 0 2 0 C2.01417969 0.65226562 2.02835937 1.30453125 2.04296875 1.9765625 C2.39315631 8.39351297 3.25873024 11.5895165 8 16 C11.37369086 18.36158361 14.92752171 18.79637609 19 19 C21.13095307 18.34279018 23.09001367 17.54606279 25.10546875 16.59375 C27.47921087 15.84981432 28.70398854 16.09025961 31 17 C32.625 19.3125 32.625 19.3125 34 22 C34.5878125 23.1446875 34.5878125 23.1446875 35.1875 24.3125 C35.455625 24.869375 35.72375 25.42625 36 26 C34.68 25.67 33.36 25.34 32 25 C31.67 23.02 31.34 21.04 31 19 C30.3709375 19.2165625 29.741875 19.433125 29.09375 19.65625 C21.73430115 22.05028758 15.28504785 23.64252393 8 20 C8 19.34 8 18.68 8 18 C7.21625 17.7525 6.4325 17.505 5.625 17.25 C2.51512121 15.76910534 2.1911808 15.1481207 1 12 C0.71519194 9.9257375 0.51125776 7.83928561 0.375 5.75 C0.30023438 4.67234375 0.22546875 3.5946875 0.1484375 2.484375 C0.09945312 1.66453125 0.05046875 0.8446875 0 0 Z " fill="#000000" transform="translate(99,122)"/>
<path d="M0 0 C15.56259181 7.55755257 30.75913501 15.81994199 46 24 C46 24.66 46 25.32 46 26 C44.02 26 42.04 26 40 26 C40 25.34 40 24.68 40 24 C37.36 22.68 34.72 21.36 32 20 C32 19.34 32 18.68 32 18 C31.33613281 17.81824219 30.67226563 17.63648437 29.98828125 17.44921875 C29.10527344 17.19785156 28.22226562 16.94648437 27.3125 16.6875 C26.44238281 16.44386719 25.57226562 16.20023438 24.67578125 15.94921875 C21.82099592 14.93649928 19.56520174 13.60519442 17 12 C13.69598274 10.2206027 10.37825296 8.46876688 7.05859375 6.71875 C4.50456417 5.28353542 2.1967972 3.93361123 0 2 C0 1.34 0 0.68 0 0 Z " fill="#000000" transform="translate(33,16)"/>
<path d="M0 0 C1.9140625 0.2578125 1.9140625 0.2578125 4 1 C4.8359375 2.7421875 4.8359375 2.7421875 5.375 4.875 C6.41659645 7.90213968 6.84543934 8.86984366 9.375 11 C14.88938963 12.52121093 20.31710496 12.22765307 26 12 C26.33 10.02 26.66 8.04 27 6 C27.66 6 28.32 6 29 6 C28.67 8.97 28.34 11.94 28 15 C11.05900442 15.79410917 11.05900442 15.79410917 5 11 C1.46006599 7.55083353 0.45535438 4.89505956 0 0 Z " fill="#000000" transform="translate(3,73)"/>
<path d="M0 0 C-0.86625 0.4021875 -0.86625 0.4021875 -1.75 0.8125 C-6.33778261 3.23382971 -8.5363038 5.4526498 -10.75 10.1875 C-11.17796875 11.08855469 -11.6059375 11.98960938 -12.046875 12.91796875 C-12.36140625 13.60503906 -12.6759375 14.29210937 -13 15 C-13.66 15 -14.32 15 -15 15 C-14.979375 15.969375 -14.95875 16.93875 -14.9375 17.9375 C-15 21 -15 21 -16 22 C-17.99958364 22.04080783 -20.00045254 22.04254356 -22 22 C-20.68 21.67 -19.36 21.34 -18 21 C-17.505 16.545 -17.505 16.545 -17 12 C-16.01 11.67 -15.02 11.34 -14 11 C-13.87625 10.21625 -13.7525 9.4325 -13.625 8.625 C-13 6 -13 6 -11 4 C-11 3.34 -11 2.68 -11 2 C-7.22285737 -0.51809509 -4.40483837 0 0 0 Z " fill="#000000" transform="translate(45,64)"/>
<path d="M0 0 C0.33 0.99 0.66 1.98 1 3 C0.01 3.66 -0.98 4.32 -2 5 C-3.67641174 8.35282349 -4 10.16119422 -4 14 C-3.01 14.66 -2.02 15.32 -1 16 C-1.33 16.33 -1.66 16.66 -2 17 C-2.36760731 19.32817964 -2.70241581 21.6618385 -3 24 C-3.598125 23.21625 -4.19625 22.4325 -4.8125 21.625 C-6.91085249 18.85425677 -6.91085249 18.85425677 -10 17 C-9.447752 12.78627213 -8.05019656 10.2311433 -5.5625 6.8125 C-4.94503906 5.95269531 -4.32757813 5.09289062 -3.69140625 4.20703125 C-2 2 -2 2 0 0 Z " fill="#000000" transform="translate(136,12)"/>
<path d="M0 0 C0 0.66 0 1.32 0 2 C-9.97140028 7.71797485 -19.97541471 13.37581708 -30 19 C-30 18.01 -30 17.02 -30 16 C-28.35 15.67 -26.7 15.34 -25 15 C-25 14.34 -25 13.68 -25 13 C-24.43152344 12.69707031 -23.86304688 12.39414063 -23.27734375 12.08203125 C-19.48498747 10.02440889 -15.83130258 7.96525865 -12.375 5.375 C-8.79758745 2.73155063 -4.56619639 0 0 0 Z " fill="#000000" transform="translate(175,71)"/>
<path d="M0 0 C8.69170294 4.62149927 17.37020573 9.2634809 26 14 C26 14.66 26 15.32 26 16 C24.20376144 15.60350587 22.41301565 15.18206548 20.625 14.75 C19.12839844 14.40195312 19.12839844 14.40195312 17.6015625 14.046875 C15 13 15 13 13.82421875 10.96484375 C13.55222656 10.31644531 13.28023437 9.66804688 13 9 C10.07750125 7.76605608 7.37907578 7.06030751 4.25 6.5625 C2 6 2 6 0 3 C0 2.01 0 1.02 0 0 Z " fill="#000000" transform="translate(80,41)"/>
<path d="M0 0 C3.90559061 1.26667804 6.06060687 2.31515306 8 6 C8.94368415 11.76831362 9.07841888 17.26436911 8.87890625 23.09375 C8.85529526 23.92588013 8.83168427 24.75801025 8.80735779 25.61535645 C8.73147375 28.24377801 8.64713135 30.87184704 8.5625 33.5 C8.50920372 35.29425423 8.456464 37.08852508 8.40429688 38.8828125 C8.27596208 43.25542678 8.14004678 47.6277458 8 52 C7.67 52 7.34 52 7 52 C6.98018066 50.69329346 6.96036133 49.38658691 6.93994141 48.0402832 C6.86378281 43.1852718 6.77508094 38.33055608 6.68261719 33.47583008 C6.64436986 31.37595463 6.6095096 29.27601462 6.578125 27.17602539 C6.5323825 24.15487619 6.47440277 21.13416984 6.4140625 18.11328125 C6.40251129 17.17664139 6.39096008 16.24000153 6.37905884 15.27497864 C6.27755882 8.8935597 6.27755882 8.8935597 4 3 C1.95894361 2.11306697 1.95894361 2.11306697 0 2 C0 1.34 0 0.68 0 0 Z " fill="#000000" transform="translate(51,72)"/>
<path d="M0 0 C-1 3 -1 3 -3.546875 4.5 C-4.60390625 4.995 -5.6609375 5.49 -6.75 6 C-9.81019457 7.44718561 -12.75008731 8.84137279 -15.609375 10.65625 C-19.35352572 12.7608053 -22.8257876 12.84541011 -27 12 C-30.0625 9.5 -30.0625 9.5 -32 7 C-30.68 7.33 -29.36 7.66 -28 8 C-28 8.66 -28 9.32 -28 10 C-19.76766986 9.96496881 -14.76301772 7.47758415 -8 3 C-2.4 0 -2.4 0 0 0 Z " fill="#000000" transform="translate(139,124)"/>
<path d="M0 0 C0.66 0 1.32 0 2 0 C1.69925446 6.01491086 -0.86675844 9.83477978 -5 14 C-14.27599244 21 -14.27599244 21 -19 21 C-18.505 19.515 -18.505 19.515 -18 18 C-18 17.01 -18 16.02 -18 15 C-16.02 15.66 -14.04 16.32 -12 17 C-12 16.34 -12 15.68 -12 15 C-10.63875 14.1028125 -10.63875 14.1028125 -9.25 13.1875 C-5.49124757 10.65757048 -2.69812572 8.22130912 -1.3125 3.8125 C-1.209375 3.214375 -1.10625 2.61625 -1 2 C-0.67 1.34 -0.34 0.68 0 0 Z " fill="#000000" transform="translate(195,50)"/>
<path d="M0 0 C0.268125 0.639375 0.53625 1.27875 0.8125 1.9375 C1.88667752 4.33131686 1.88667752 4.33131686 5 5 C6.98387006 9.38539698 7.42632713 13.22513616 7 18 C5.5 21.4375 5.5 21.4375 4 24 C3.01 23.67 2.02 23.34 1 23 C1.66 22.01 2.32 21.02 3 20 C3.24246783 16.79620876 3.24246783 16.79620876 3.125 13.3125 C3.10695312 12.13300781 3.08890625 10.95351562 3.0703125 9.73828125 C3.04710937 8.83464844 3.02390625 7.93101562 3 7 C2.34 7 1.68 7 1 7 C0.67 4.69 0.34 2.38 0 0 Z " fill="#000000" transform="translate(130,143)"/>
<path d="M0 0 C0.804375 0.185625 1.60875 0.37125 2.4375 0.5625 C6.78253084 1.09610028 10.68989724 0.6225704 15 0 C15 0.66 15 1.32 15 2 C14.34 2 13.68 2 13 2 C13 2.99 13 3.98 13 5 C13.66 5 14.32 5 15 5 C14.67 6.32 14.34 7.64 14 9 C7.07 5.04 7.07 5.04 0 1 C0 0.67 0 0.34 0 0 Z " fill="#000000" transform="translate(81,35)"/>
<path d="M0 0 C0.33 0.66 0.66 1.32 1 2 C-0.33341652 1.85492922 -1.66672764 1.7088897 -3 1.5625 C-3.81984375 1.47484375 -4.6396875 1.3871875 -5.484375 1.296875 C-7.06148573 1.11075634 -8.63578533 0.89629034 -10.203125 0.640625 C-14.44161224 -0.03882715 -17.17611622 -0.03143826 -21 2 C-20 -1 -20 -1 -17.875 -2.1875 C-11.16176595 -4.08471832 -6.16621116 -2.76416362 0 0 Z " fill="#060606" transform="translate(159,11)"/>
<path d="M0 0 C3 2 3 2 4 5 C4.08106686 6.55421729 4.10756898 8.11167027 4.09765625 9.66796875 C4.09282227 11.00698242 4.09282227 11.00698242 4.08789062 12.37304688 C4.07951172 13.30181641 4.07113281 14.23058594 4.0625 15.1875 C4.05798828 16.12787109 4.05347656 17.06824219 4.04882812 18.03710938 C4.03704626 20.35813712 4.02059558 22.67903644 4 25 C3.67 25 3.34 25 3 25 C2.87882812 23.77023438 2.75765625 22.54046875 2.6328125 21.2734375 C2.46389705 19.6405882 2.29460636 18.00777768 2.125 16.375 C2.04636719 15.56675781 1.96773438 14.75851563 1.88671875 13.92578125 C1.40468596 9.36500951 0.6615882 5.31454415 -1 1 C-0.67 0.67 -0.34 0.34 0 0 Z " fill="#000000" transform="translate(63,72)"/>
<path d="M0 0 C5.57971014 0.76086957 5.57971014 0.76086957 7.8125 2.03125 C10.72025129 3.31896843 13.08517115 3.19380063 16.25 3.125 C17.86648437 3.09792969 17.86648437 3.09792969 19.515625 3.0703125 C20.33546875 3.04710937 21.1553125 3.02390625 22 3 C22.33 3.66 22.66 4.32 23 5 C16.65075835 7.11641388 10.83282632 6.2766819 4.76171875 3.94921875 C2.79716761 2.89071337 1.49585083 1.6431346 0 0 Z " fill="#000000" transform="translate(71,186)"/>
<path d="M0 0 C1.21247446 0.63802495 2.42231319 1.28121151 3.625 1.9375 C3.625 2.2675 3.625 2.5975 3.625 2.9375 C-3.25 2.0625 -3.25 2.0625 -4.375 0.9375 C-6.39464199 0.86505947 -8.41667124 0.85372812 -10.4375 0.875 C-11.54222656 0.88402344 -12.64695312 0.89304687 -13.78515625 0.90234375 C-14.63980469 0.91394531 -15.49445313 0.92554688 -16.375 0.9375 C-11.30265604 -4.61792434 -6.18578654 -3.08741912 0 0 Z " fill="#000000" transform="translate(93.375,16.0625)"/>
<path d="M0 0 C-6.27 3.63 -12.54 7.26 -19 11 C-19 10.01 -19 9.02 -19 8 C-15.13826538 4.64334239 -4.88509006 -2.44254503 0 0 Z " fill="#000000" transform="translate(143,91)"/>
<path d="M0 0 C4.27186525 1.52853935 7.99326863 3.71509481 11.8125 6.125 C12.40998047 6.49753906 13.00746094 6.87007812 13.62304688 7.25390625 C15.08426251 8.1657048 16.54244585 9.08235976 18 10 C17.34 10.66 16.68 11.32 16 12 C15.43152344 11.61328125 14.86304688 11.2265625 14.27734375 10.828125 C9.61221532 7.68169447 4.92381101 4.72381035 0 2 C0 1.34 0 0.68 0 0 Z " fill="#000000" transform="translate(160,13)"/>
<path d="M0 0 C0.66 0 1.32 0 2 0 C1.67 1.32 1.34 2.64 1 4 C-0.98 4.33 -2.96 4.66 -5 5 C-5 5.66 -5 6.32 -5 7 C-9.95 7 -14.9 7 -20 7 C-20 6.34 -20 5.68 -20 5 C-19.20335938 5.03480469 -18.40671875 5.06960937 -17.5859375 5.10546875 C-9.36701825 5.36782279 -9.36701825 5.36782279 -2 2 C-1.34 1.34 -0.68 0.68 0 0 Z " fill="#000000" transform="translate(129,53)"/>
<path d="M0 0 C1.08209949 3.24629847 0.78140875 3.87436498 0 7 C0.33 7.99 0.66 8.98 1 10 C1.99 10.33 2.98 10.66 4 11 C3.34 11.66 2.68 12.32 2 13 C-0.125 12.625 -0.125 12.625 -2 12 C-3.01911045 8.10885099 -3.16782969 6.39403493 -1.5625 2.625 C-1.046875 1.75875 -0.53125 0.8925 0 0 Z " fill="#000000" transform="translate(108,118)"/>
<path d="M0 0 C0.66 0.33 1.32 0.66 2 1 C1.2575 1.721875 0.515 2.44375 -0.25 3.1875 C-3.5650275 6.57786904 -6.37189065 10.05783597 -9 14 C-10.0536628 10.83901159 -10.21514551 9.99112741 -9 7 C-5.67857143 4 -5.67857143 4 -3 4 C-2.67 3.01 -2.34 2.02 -2 1 C-1.34 0.67 -0.68 0.34 0 0 Z " fill="#000000" transform="translate(109,107)"/>
<path d="M0 0 C0 0.66 0 1.32 0 2 C1.32 2.33 2.64 2.66 4 3 C3.67 4.65 3.34 6.3 3 8 C0 7 0 7 -1.1875 4.9375 C-1.455625 4.298125 -1.72375 3.65875 -2 3 C-2.66 3 -3.32 3 -4 3 C-4.33 3.66 -4.66 4.32 -5 5 C-5 4.34 -5 3.68 -5 3 C-5.66 2.67 -6.32 2.34 -7 2 C-2.25 0 -2.25 0 0 0 Z " fill="#000000" transform="translate(51,72)"/>
<path d="M0 0 C-1 3 -1 3 -3.6171875 4.640625 C-5.22980469 5.43726563 -5.22980469 5.43726563 -6.875 6.25 C-8.47988281 7.06210938 -8.47988281 7.06210938 -10.1171875 7.890625 C-13 9 -13 9 -16 8 C-3.54150198 0 -3.54150198 0 0 0 Z " fill="#000000" transform="translate(139,124)"/>
<path d="M0 0 C-1.31213059 3.93639176 -2.82801522 4.28653597 -6.4375 6.1875 C-7.42621094 6.71730469 -8.41492188 7.24710937 -9.43359375 7.79296875 C-12 9 -12 9 -14 9 C-14 8.34 -14 7.68 -14 7 C-11.69921875 5.2734375 -11.69921875 5.2734375 -8.6875 3.375 C-7.70136719 2.74335937 -6.71523437 2.11171875 -5.69921875 1.4609375 C-3 0 -3 0 0 0 Z " fill="#000000" transform="translate(154,115)"/>
<path d="M0 0 C0.99 0.66 1.98 1.32 3 2 C-1.62 4.64 -6.24 7.28 -11 10 C-11 9.01 -11 8.02 -11 7 C-9.35 6.67 -7.7 6.34 -6 6 C-6 5.34 -6 4.68 -6 4 C-4.03852126 2.61061923 -2.03833424 1.2739589 0 0 Z " fill="#000000" transform="translate(156,80)"/>
<path d="M0 0 C0.33 0.99 0.66 1.98 1 3 C0.01 3.66 -0.98 4.32 -2 5 C-2.474375 6.155 -2.94875 7.31 -3.4375 8.5 C-5 12 -5 12 -7.1875 13.4375 C-8.0846875 13.7159375 -8.0846875 13.7159375 -9 14 C-7.34966761 8.71893635 -3.90667286 3.90667286 0 0 Z " fill="#000000" transform="translate(136,12)"/>
<path d="M0 0 C1.32 0.33 2.64 0.66 4 1 C4.33 3.97 4.66 6.94 5 10 C1.32769295 6.92000054 0.43197635 4.7517398 0 0 Z " fill="#000000" transform="translate(3,73)"/>
<path d="M0 0 C0.66 0 1.32 0 2 0 C1.67 2.97 1.34 5.94 1 9 C-3.95 9 -8.9 9 -14 9 C-14 8.67 -14 8.34 -14 8 C-8.06 7.505 -8.06 7.505 -2 7 C-1.34 4.69 -0.68 2.38 0 0 Z " fill="#000000" transform="translate(30,79)"/>
<path d="M0 0 C0 0.66 0 1.32 0 2 C-0.66 2 -1.32 2 -2 2 C-2.33 2.99 -2.66 3.98 -3 5 C-4.84765625 6.16796875 -4.84765625 6.16796875 -7.0625 7.1875 C-7.79597656 7.53167969 -8.52945313 7.87585938 -9.28515625 8.23046875 C-9.85105469 8.48441406 -10.41695313 8.73835937 -11 9 C-10.69140625 7.078125 -10.69140625 7.078125 -10 5 C-6.9375 3.75 -6.9375 3.75 -4 3 C-4 2.34 -4 1.68 -4 1 C-2 0 -2 0 0 0 Z " fill="#000000" transform="translate(133,167)"/>
<path d="M0 0 C1.17369141 0.11794922 1.17369141 0.11794922 2.37109375 0.23828125 C4.5625 0.6875 4.5625 0.6875 7.5625 2.6875 C5.60446493 2.74139087 3.64601091 2.78024217 1.6875 2.8125 C0.59695312 2.83570313 -0.49359375 2.85890625 -1.6171875 2.8828125 C-4.4375 2.6875 -4.4375 2.6875 -6.4375 0.6875 C-3.97648622 -0.54300689 -2.71323817 -0.29850075 0 0 Z " fill="#000000" transform="translate(25.4375,13.3125)"/>
<path d="M0 0 C0.99 0.33 1.98 0.66 3 1 C3 4.63 3 8.26 3 12 C1.02 12.99 1.02 12.99 -1 14 C-0.84402344 13.32453125 -0.68804687 12.6490625 -0.52734375 11.953125 C-0.33269531 11.06109375 -0.13804687 10.1690625 0.0625 9.25 C0.25972656 8.36828125 0.45695313 7.4865625 0.66015625 6.578125 C0.99825872 4.01320972 0.81158635 2.42908361 0 0 Z " fill="#000000" transform="translate(132,37)"/>
<path d="M0 0 C0.99 0 1.98 0 3 0 C3.33 0.99 3.66 1.98 4 3 C4.99 3.33 5.98 3.66 7 4 C6.67 4.66 6.34 5.32 6 6 C3.4375 6.625 3.4375 6.625 1 7 C0.67 4.69 0.34 2.38 0 0 Z " fill="#000000" transform="translate(117,32)"/>
<path d="M0 0 C0.33 0 0.66 0 1 0 C1.31563182 5.26053037 0.66590937 8.44573816 -2 13 C-2.99 12.67 -3.98 12.34 -5 12 C-4.01 10.02 -3.02 8.04 -2 6 C-1.34 6 -0.68 6 0 6 C0 4.02 0 2.04 0 0 Z " fill="#000000" transform="translate(136,154)"/>
<path d="M0 0 C0.33 0.66 0.66 1.32 1 2 C-1.9826906 3.52448631 -4.818202 4.93940067 -8 6 C-8 6.99 -8 7.98 -8 9 C-8.66 9 -9.32 9 -10 9 C-8.73317448 5.09395463 -7.56716435 3.09833197 -4 1 C-1.75 0.3125 -1.75 0.3125 0 0 Z " fill="#000000" transform="translate(48,71)"/>
<path d="M0 0 C3.3 1.65 6.6 3.3 10 5 C10 5.66 10 6.32 10 7 C6.12697862 5.85569823 2.99736561 4.76679902 0 2 C0 1.34 0 0.68 0 0 Z " fill="#000000" transform="translate(33,16)"/>
<path d="M0 0 C0 0.99 0 1.98 0 3 C-4.455 3.495 -4.455 3.495 -9 4 C-9.33 3.34 -9.66 2.68 -10 2 C-8.7090864 1.66376204 -7.41723903 1.33110751 -6.125 1 C-5.40570313 0.814375 -4.68640625 0.62875 -3.9453125 0.4375 C-2 0 -2 0 0 0 Z " fill="#000000" transform="translate(124,140)"/>
<path d="M0 0 C0.66 0 1.32 0 2 0 C1.69611836 2.93752254 1.19330344 3.84080893 -1.125 5.75 C-4.59278683 7.2577334 -7.25670998 7.22019353 -11 7 C-11 6.67 -11 6.34 -11 6 C-8.36 5.67 -5.72 5.34 -3 5 C-3 4.34 -3 3.68 -3 3 C-2.34 3 -1.68 3 -1 3 C-0.67 2.01 -0.34 1.02 0 0 Z " fill="#000000" transform="translate(56,124)"/>
<path d="M0 0 C0.99 0.33 1.98 0.66 3 1 C1.68 3.31 0.36 5.62 -1 8 C-1.66 8 -2.32 8 -3 8 C-3.33 8.99 -3.66 9.98 -4 11 C-3.74438677 8.6568787 -3.40729228 6.32156597 -3 4 C-2.34 3.67 -1.68 3.34 -1 3 C-0.67 2.01 -0.34 1.02 0 0 Z " fill="#000000" transform="translate(33,71)"/>
<path d="M0 0 C5.75 1.875 5.75 1.875 8 3 C7.67 3.99 7.34 4.98 7 6 C4.525 5.01 4.525 5.01 2 4 C2 3.34 2 2.68 2 2 C1.34 2 0.68 2 0 2 C0 1.34 0 0.68 0 0 Z " fill="#000000" transform="translate(57,31)"/>
<path d="M0 0 C0.556875 0.474375 1.11375 0.94875 1.6875 1.4375 C4.18346074 3.12395996 6.0446237 3.58953107 9 4 C9 4.33 9 4.66 9 5 C6.03 5 3.06 5 0 5 C-0.66 3.68 -1.32 2.36 -2 1 C-1.34 0.67 -0.68 0.34 0 0 Z " fill="#000000" transform="translate(42,125)"/>
<path d="M0 0 C1.32 0.33 2.64 0.66 4 1 C4 1.99 4 2.98 4 4 C4.66 4.33 5.32 4.66 6 5 C5.67 5.99 5.34 6.98 5 8 C2.74754119 5.31158141 1.11786042 3.35358125 0 0 Z " fill="#000000" transform="translate(65,177)"/>
<path d="M0 0 C0 0.66 0 1.32 0 2 C1.32 2.33 2.64 2.66 4 3 C0.98968256 3.93423645 0.13349732 4.04449911 -3 3 C-2.34 3 -1.68 3 -1 3 C-1 2.34 -1 1.68 -1 1 C-2.32 1.33 -3.64 1.66 -5 2 C-5.33 1.34 -5.66 0.68 -6 0 C-3.50907189 -1.24546405 -2.58919267 -0.7767578 0 0 Z " fill="#000000" transform="translate(137,121)"/>
<path d="M0 0 C3 2 3 2 3.6875 5.125 C3.790625 6.07375 3.89375 7.0225 4 8 C3.01 8.495 3.01 8.495 2 9 C1.01 6.36 0.02 3.72 -1 1 C-0.67 0.67 -0.34 0.34 0 0 Z " fill="#000000" transform="translate(63,72)"/>
<path d="M0 0 C2.80175356 1.86783571 4.11192137 3.30274481 6 6 C2 6 2 6 0.25 4.5 C-0.1625 4.005 -0.575 3.51 -1 3 C-0.67 2.01 -0.34 1.02 0 0 Z " fill="#000000" transform="translate(75,28)"/>
<path d="M0 0 C0.99 0.33 1.98 0.66 3 1 C1.02 5.455 1.02 5.455 -1 10 C-1.33 10 -1.66 10 -2 10 C-1.85950482 8.52031676 -1.71245174 7.04125484 -1.5625 5.5625 C-1.48128906 4.73878906 -1.40007812 3.91507813 -1.31640625 3.06640625 C-1 1 -1 1 0 0 Z " fill="#000000" transform="translate(75,18)"/>
<path d="M0 0 C3.93673644 1.31224548 6.22719294 2.91910327 9 6 C5.21213403 5.4739075 2.82847776 4.61896089 0 2 C0 1.34 0 0.68 0 0 Z " fill="#000000" transform="translate(183,27)"/>
<path d="M0 0 C1.5 1.375 1.5 1.375 3 3 C3 3.66 3 4.32 3 5 C3.66 5.33 4.32 5.66 5 6 C4.67 6.66 4.34 7.32 4 8 C3.34 8 2.68 8 2 8 C-0.1519437 4.77208445 -0.20086443 3.71599191 0 0 Z " fill="#000000" transform="translate(37,120)"/>
<path d="M0 0 C3.96 1.98 3.96 1.98 8 4 C8 4.66 8 5.32 8 6 C5.125 5.25 5.125 5.25 2 4 C1.34 2.68 0.68 1.36 0 0 Z " fill="#000000" transform="translate(98,51)"/>
<path d="M0 0 C0.33 0 0.66 0 1 0 C1.33 2.97 1.66 5.94 2 9 C1.34 8.67 0.68 8.34 0 8 C-0.6875 4.5 -0.6875 4.5 -1 1 C-0.67 0.67 -0.34 0.34 0 0 Z " fill="#000000" transform="translate(98,123)"/>
<path d="M0 0 C0.99 0.33 1.98 0.66 3 1 C3 1.66 3 2.32 3 3 C3.66 3.33 4.32 3.66 5 4 C2 6 2 6 -1 6 C-0.67 5.01 -0.34 4.02 0 3 C0 2.01 0 1.02 0 0 Z " fill="#000000" transform="translate(177,65)"/>
<path d="M0 0 C3.33523252 1.38009621 5.18607951 2.84950652 7 6 C6.67 6.99 6.34 7.98 6 9 C5.566875 8.21625 5.13375 7.4325 4.6875 6.625 C3.10779753 3.78301625 3.10779753 3.78301625 0 2 C0 1.34 0 0.68 0 0 Z " fill="#000000" transform="translate(126,27)"/>
</svg>